<svg xmlns="http://www.w3.org/2000/svg" width="39" height="34" viewBox="0 0 39 34">
  <metadata><?xpacket begin="﻿" id="W5M0MpCehiHzreSzNTczkc9d"?>
<x:xmpmeta xmlns:x="adobe:ns:meta/" x:xmptk="Adobe XMP Core 5.6-c142 79.160924, 2017/07/13-01:06:39        ">
   <rdf:RDF xmlns:rdf="http://www.w3.org/1999/02/22-rdf-syntax-ns#">
      <rdf:Description rdf:about=""/>
   </rdf:RDF>
</x:xmpmeta>
                                                                                                    
                                                                                                    
                                                                                                    
                                                                                                    
                                                                                                    
                                                                                                    
                                                                                                    
                                                                                                    
                                                                                                    
                                                                                                    
                                                                                                    
                                                                                                    
                                                                                                    
                                                                                                    
                                                                                                    
                                                                                                    
                                                                                                    
                                                                                                    
                                                                                                    
                                                                                                    
                           
<?xpacket end="w"?></metadata>
<defs>
    <style>
      .cls-1 {
        fill: #00d15d;
        fill-rule: evenodd;
      }
    </style>
  </defs>
  <path id="Forma_1" data-name="Forma 1" class="cls-1" d="M1107.33,958.718a24.766,24.766,0,0,0,3.16-.2V947.739a24.58,24.58,0,0,0-3.16-.2c-6.26,0-11.33,2.257-11.33,5.042v1.094C1096,956.461,1101.07,958.718,1107.33,958.718Zm0,5.63a24.762,24.762,0,0,0,3.16-.2v-3.16a24.762,24.762,0,0,1-3.16.2c-5.46,0-10.02-1.72-11.09-4.009a2.364,2.364,0,0,0-.24,1.033v1.093C1096,962.09,1101.07,964.348,1107.33,964.348Zm3.16,2.516v-0.246a24.576,24.576,0,0,1-3.16.2c-5.46,0-10.02-1.72-11.09-4.01a2.367,2.367,0,0,0-.24,1.033v1.094c0,2.785,5.07,5.042,11.33,5.042a24.572,24.572,0,0,0,3.58-.257,3.9,3.9,0,0,1-.42-1.763v-1.093ZM1123.67,939c-6.26,0-11.33,2.258-11.33,5.042v1.094c0,2.785,5.07,5.042,11.33,5.042s11.33-2.257,11.33-5.042v-1.094C1135,941.258,1129.93,939,1123.67,939Zm0,13.649c-5.46,0-10.02-1.721-11.09-4.01a2.364,2.364,0,0,0-.24,1.033v1.093c0,2.785,5.07,5.043,11.33,5.043s11.33-2.258,11.33-5.043v-1.093a2.364,2.364,0,0,0-.24-1.033C1133.69,950.928,1129.13,952.649,1123.67,952.649Zm0,5.629c-5.46,0-10.02-1.72-11.09-4.009a2.36,2.36,0,0,0-.24,1.032V956.4c0,2.785,5.07,5.042,11.33,5.042S1135,959.18,1135,956.4V955.3a2.36,2.36,0,0,0-.24-1.032C1133.69,956.558,1129.13,958.278,1123.67,958.278Zm0,5.933c-5.46,0-10.02-1.72-11.09-4.009a2.364,2.364,0,0,0-.24,1.033v1.093c0,2.785,5.07,5.042,11.33,5.042s11.33-2.257,11.33-5.042v-1.093a2.361,2.361,0,0,0-.24-1.033C1133.69,962.491,1129.13,964.211,1123.67,964.211Zm0,5.63c-5.46,0-10.02-1.72-11.09-4.01a2.367,2.367,0,0,0-.24,1.033v1.094c0,2.785,5.07,5.042,11.33,5.042s11.33-2.257,11.33-5.042v-1.094a2.367,2.367,0,0,0-.24-1.033C1133.69,968.121,1129.13,969.841,1123.67,969.841Z" transform="translate(-1096 -939)"/>
</svg>
