<svg 
 xmlns="http://www.w3.org/2000/svg"
 xmlns:xlink="http://www.w3.org/1999/xlink"
 width="80px" height="31px">
<g filter="url(#Filter_0)">
<path fill-rule="evenodd"  fill="rgb(255, 255, 255)"
 d="M65.185,30.145 C57.033,30.145 50.370,23.382 50.370,15.063 C50.370,6.744 57.014,-0.000 65.185,-0.000 C73.356,-0.000 80.000,6.764 80.000,15.082 C80.000,23.401 73.356,30.145 65.185,30.145 ZM66.941,14.771 C67.495,14.460 67.991,14.091 68.450,13.722 L71.275,13.722 L71.275,11.234 L69.939,11.234 C69.939,11.176 69.958,11.117 69.958,11.059 C69.977,11.001 69.977,10.923 69.977,10.845 C69.977,9.232 69.500,7.969 68.545,7.055 C67.610,6.122 66.235,5.656 64.498,5.656 C63.448,5.656 62.550,5.773 61.787,6.025 C61.023,6.258 60.412,6.550 59.916,6.841 L61.004,9.776 C61.443,9.543 61.882,9.329 62.359,9.154 C62.856,8.979 63.428,8.882 64.154,8.882 C64.898,8.882 65.490,9.018 65.872,9.290 C66.292,9.563 66.483,9.951 66.483,10.495 C66.483,10.729 66.445,10.981 66.368,11.195 L58.503,11.195 L58.503,13.702 L63.467,13.702 C62.951,13.975 62.455,14.286 61.958,14.597 C61.462,14.907 61.004,15.277 60.622,15.685 L58.503,15.685 L58.503,18.231 L59.477,18.231 L59.477,18.600 C59.477,20.194 59.973,21.438 60.947,22.332 C61.920,23.226 63.448,23.693 65.509,23.693 C66.865,23.693 67.953,23.518 68.793,23.226 C69.614,22.935 70.244,22.624 70.645,22.371 L69.576,19.417 C69.118,19.650 68.583,19.902 67.972,20.136 C67.361,20.369 66.560,20.486 65.605,20.486 C64.669,20.486 63.982,20.272 63.600,19.922 C63.180,19.533 62.989,19.106 62.989,18.561 C62.989,18.406 62.989,18.289 63.009,18.211 L71.275,18.211 L71.275,15.724 L65.357,15.724 C65.872,15.413 66.388,15.082 66.941,14.771 ZM50.790,24.470 C48.079,27.949 43.898,30.165 39.220,30.165 C31.049,30.165 24.405,23.401 24.405,15.082 C24.405,6.764 31.068,-0.000 39.220,-0.000 C43.898,-0.000 48.079,2.216 50.790,5.714 C49.090,8.416 48.098,11.623 48.098,15.082 C48.098,18.542 49.090,21.749 50.790,24.470 ZM43.344,6.550 C43.039,6.472 42.695,6.414 42.370,6.375 C42.027,6.336 41.683,6.297 41.358,6.278 C41.034,6.258 40.728,6.239 40.461,6.239 C39.526,6.239 38.647,6.336 37.807,6.550 C36.967,6.764 36.204,7.094 35.497,7.502 C34.810,7.930 34.218,8.435 33.703,9.057 C33.206,9.660 32.786,10.379 32.519,11.215 L31.240,11.215 L30.209,14.169 L32.137,14.169 C32.118,14.266 32.118,14.344 32.118,14.402 C32.118,14.460 32.118,14.519 32.118,14.577 C32.118,14.635 32.118,14.713 32.118,14.791 C32.118,14.869 32.118,14.966 32.061,15.024 L31.030,15.024 L30.094,17.920 L32.423,17.920 C32.633,18.717 32.958,19.397 33.397,20.039 C33.836,20.680 34.352,21.224 34.963,21.652 C35.574,22.079 36.261,22.429 37.044,22.663 C37.826,22.896 38.666,23.012 39.583,23.012 C40.480,23.012 41.244,22.935 41.912,22.798 C42.580,22.624 43.096,22.468 43.478,22.254 L42.809,18.367 C42.523,18.542 42.122,18.678 41.626,18.795 C41.110,18.911 40.614,18.970 40.098,18.970 C39.545,18.970 39.010,18.872 38.476,18.697 C37.960,18.523 37.597,18.250 37.406,17.920 L40.614,17.920 L41.568,15.024 L36.776,15.024 C36.757,14.907 36.757,14.830 36.757,14.752 C36.757,14.694 36.757,14.616 36.757,14.538 C36.757,14.480 36.757,14.421 36.757,14.363 C36.757,14.305 36.757,14.227 36.776,14.130 L41.798,14.130 L42.809,11.176 L37.674,11.176 C37.807,10.981 37.941,10.826 38.132,10.709 C38.304,10.592 38.552,10.495 38.781,10.398 C39.010,10.320 39.277,10.243 39.545,10.204 C39.812,10.165 40.079,10.145 40.347,10.145 C40.728,10.145 41.129,10.184 41.588,10.262 C42.027,10.340 42.408,10.437 42.695,10.534 L44.165,6.783 C43.936,6.686 43.650,6.608 43.344,6.550 ZM25.703,25.733 C23.030,28.474 19.308,30.184 15.203,30.184 C7.032,30.184 0.388,23.440 0.388,15.102 C0.388,6.764 7.013,0.019 15.184,0.019 C19.288,0.019 22.992,1.730 25.665,4.470 C23.450,7.405 22.114,11.098 22.114,15.082 C22.114,19.067 23.450,22.760 25.703,25.733 ZM17.570,7.191 C16.597,6.822 15.642,6.589 14.649,6.531 L14.649,4.898 L12.377,4.898 L12.377,6.569 C11.766,6.667 11.174,6.880 10.583,7.133 C9.991,7.386 9.494,7.736 9.036,8.163 C8.616,8.591 8.253,9.096 7.986,9.718 C7.738,10.321 7.604,11.020 7.604,11.817 C7.604,12.497 7.719,13.061 7.929,13.566 C8.139,14.052 8.464,14.480 8.826,14.830 C9.189,15.180 9.609,15.490 10.105,15.724 C10.602,15.977 11.098,16.190 11.633,16.365 C12.186,16.560 12.645,16.715 13.007,16.832 C13.370,16.968 13.656,17.084 13.866,17.182 C14.057,17.279 14.210,17.395 14.286,17.492 C14.363,17.590 14.401,17.706 14.401,17.862 C14.401,18.134 14.267,18.328 14.038,18.425 C13.809,18.523 13.523,18.581 13.236,18.581 C12.931,18.581 12.587,18.542 12.282,18.464 C11.976,18.387 11.652,18.270 11.365,18.134 C11.060,17.978 10.774,17.823 10.525,17.648 C10.258,17.454 10.048,17.279 9.876,17.084 L6.669,20.563 C7.375,21.166 8.196,21.691 9.170,22.079 C10.144,22.487 11.136,22.721 12.167,22.798 L12.167,24.489 L14.401,24.489 L14.401,22.779 C15.107,22.701 15.756,22.546 16.406,22.293 C17.055,22.041 17.608,21.691 18.105,21.224 C18.582,20.758 18.983,20.233 19.269,19.572 C19.575,18.950 19.728,18.192 19.728,17.356 C19.728,16.540 19.537,15.899 19.212,15.335 C18.888,14.791 18.468,14.324 17.933,13.955 C17.398,13.605 16.845,13.294 16.215,13.061 C15.585,12.808 15.012,12.614 14.439,12.439 C13.905,12.264 13.485,12.128 13.256,12.011 C13.007,11.875 12.893,11.701 12.893,11.467 C12.893,11.195 13.007,11.020 13.236,10.923 C13.466,10.826 13.790,10.768 14.172,10.768 C14.592,10.768 15.050,10.884 15.566,11.098 C16.081,11.312 16.520,11.662 16.864,12.089 L20.148,8.785 C19.403,8.105 18.544,7.561 17.570,7.191 Z"/>
</g>
</svg>
