<svg xmlns="http://www.w3.org/2000/svg" xmlns:xlink="http://www.w3.org/1999/xlink" width="79.62" height="30.19" viewBox="0 0 79.62 30.19">
  <defs>
    <style>
      .cls-1 {
        fill: #fff;
        fill-rule: evenodd;
        filter: url(#filter);
      }
    </style>
    <filter id="filter" x="1326.38" y="1065" width="79.62" height="30.19" filterUnits="userSpaceOnUse">
      <feFlood result="flood" flood-color="#444"/>
      <feComposite result="composite" operator="in" in2="SourceGraphic"/>
      <feBlend result="blend" mode="multiply" in2="SourceGraphic"/>
    </filter>
  </defs>
  <path id="Фигура_1" data-name="Фигура 1" class="cls-1" d="M1348.11,1080.08a17.593,17.593,0,0,1,3.56-10.61,14.623,14.623,0,0,0-10.49-4.45,15.083,15.083,0,0,0,.02,30.16,14.628,14.628,0,0,0,10.5-4.45A17.586,17.586,0,0,1,1348.11,1080.08Zm-8.85-3.07a9.532,9.532,0,0,0,1.18.43c0.57,0.17,1.14.37,1.77,0.62a8.254,8.254,0,0,1,1.72.9,4.184,4.184,0,0,1,1.28,1.37,3.894,3.894,0,0,1,.52,2.03,5.212,5.212,0,0,1-3.32,4.93,7.581,7.581,0,0,1-2.01.49v1.71h-2.23v-1.69a9.537,9.537,0,0,1-3-.72,8.887,8.887,0,0,1-2.5-1.52l3.21-3.48a3.775,3.775,0,0,0,.65.57,5.99,5.99,0,0,0,.84.48,4.314,4.314,0,0,0,.91.33,3.945,3.945,0,0,0,.96.12,2.277,2.277,0,0,0,.8-0.15,0.584,0.584,0,0,0,.36-0.57,0.624,0.624,0,0,0-.11-0.37,1.568,1.568,0,0,0-.42-0.31c-0.21-.1-0.5-0.21-0.86-0.35-0.37-.11-0.82-0.27-1.38-0.46a10.22,10.22,0,0,1-1.52-.65,4.571,4.571,0,0,1-1.28-.89,3.923,3.923,0,0,1-.9-1.26,4.476,4.476,0,0,1-.33-1.75,5.425,5.425,0,0,1,.39-2.1,4.977,4.977,0,0,1,1.05-1.56,5.466,5.466,0,0,1,1.54-1.03,7.968,7.968,0,0,1,1.8-.56v-1.67h2.27v1.63a9.794,9.794,0,0,1,2.92.66,7.993,7.993,0,0,1,2.58,1.6l-3.29,3.3a3.222,3.222,0,0,0-1.29-.99,3.622,3.622,0,0,0-1.4-.33,2.616,2.616,0,0,0-.93.15,0.55,0.55,0,0,0-.35.55A0.591,0.591,0,0,0,1339.26,1077.01Zm37.53-6.3a14.616,14.616,0,0,0-11.57-5.71,15.082,15.082,0,0,0,0,30.16,14.627,14.627,0,0,0,11.57-5.69A17.7,17.7,0,0,1,1376.79,1070.71Zm-7.98,5.47-1.01,2.95h-5.02a1.063,1.063,0,0,0-.02.23v0.39a1.371,1.371,0,0,0,.02.27h4.79l-0.96,2.9h-3.2a1.893,1.893,0,0,0,1.07.78,5.241,5.241,0,0,0,1.62.27,6.725,6.725,0,0,0,1.53-.18,4.212,4.212,0,0,0,1.18-.42l0.67,3.88a6.834,6.834,0,0,1-1.57.55,12.122,12.122,0,0,1-2.33.21,8.665,8.665,0,0,1-2.54-.35,7.056,7.056,0,0,1-2.08-1.01,6.3,6.3,0,0,1-1.56-1.61,6.64,6.64,0,0,1-.98-2.12h-2.33l0.94-2.9h1.03a0.3,0.3,0,0,0,.06-0.23v-0.39a1.063,1.063,0,0,1,.02-0.23h-1.93l1.03-2.96h1.28a6.657,6.657,0,0,1,1.18-2.15,7.467,7.467,0,0,1,1.8-1.56,8.772,8.772,0,0,1,2.31-.95,10.871,10.871,0,0,1,2.65-.31c0.27,0,.57.02,0.9,0.04s0.67,0.06,1.01.09a7.556,7.556,0,0,1,.97.18,4.534,4.534,0,0,1,.82.23l-1.47,3.75a8.854,8.854,0,0,0-1.1-.27,7.108,7.108,0,0,0-1.24-.11,5.506,5.506,0,0,0-.81.05,4.452,4.452,0,0,0-.76.2,3.939,3.939,0,0,0-.65.31,1.589,1.589,0,0,0-.46.47h5.14Zm22.37-11.18a15.077,15.077,0,1,0,14.82,15.08A14.941,14.941,0,0,0,1391.18,1065Zm6.1,13.72h-2.83a11.219,11.219,0,0,1-1.51,1.05c-0.55.31-1.07,0.64-1.58,0.95h5.92v2.49h-8.27a1.677,1.677,0,0,0-.02.35,1.734,1.734,0,0,0,.61,1.36,2.982,2.982,0,0,0,2,.57,6.853,6.853,0,0,0,2.37-.35c0.61-.24,1.15-0.49,1.61-0.72l1.07,2.95a10.845,10.845,0,0,1-1.86.86,10.169,10.169,0,0,1-3.28.46,6.557,6.557,0,0,1-4.56-1.36,4.792,4.792,0,0,1-1.47-3.73v-0.37h-0.98v-2.55h2.12a6.817,6.817,0,0,1,1.34-1.08c0.49-.31.99-0.63,1.51-0.9h-4.97v-2.5h7.87a2.38,2.38,0,0,0,.11-0.7,1.314,1.314,0,0,0-.61-1.21,3.011,3.011,0,0,0-1.72-.41,5.441,5.441,0,0,0-1.79.27,10.522,10.522,0,0,0-1.36.63l-1.08-2.94a8.292,8.292,0,0,1,1.87-.81,8.417,8.417,0,0,1,2.71-.37,5.524,5.524,0,0,1,4.05,1.4,5,5,0,0,1,1.43,3.79,0.714,0.714,0,0,1-.02.21c0,0.06-.02.12-0.02,0.17h1.34v2.49Z" transform="translate(-1326.38 -1065)"/>
</svg>
