<svg xmlns="http://www.w3.org/2000/svg" width="25" height="38" viewBox="0 0 25 38">
  <defs>
    <style>
      .cls-1 {
        fill: #00d15d;
        fill-rule: evenodd;
      }
    </style>
  </defs>
  <path id="Фигура_2" data-name="Фигура 2" class="cls-1" d="M446.5,937A12.907,12.907,0,1,0,459,949.9,12.721,12.721,0,0,0,446.5,937h0Zm0,22.722a9.826,9.826,0,1,1,9.517-9.822,9.673,9.673,0,0,1-9.517,9.822h0Zm0,0,0,4.306a13.515,13.515,0,0,1-7.412-2.209L438.456,975l7.221-6.422a1.172,1.172,0,0,1,1.665,0l7.22,6.422-0.649-13.181a13.521,13.521,0,0,1-7.413,2.209h0Zm0,0,0-15.78,0-7.094a8.751,8.751,0,1,0,8.475,8.746,8.614,8.614,0,0,0-8.475-8.746h0Zm0,12.076" transform="translate(-434 -937)"/>
</svg>
