<svg xmlns="http://www.w3.org/2000/svg" width="36" height="35" viewBox="0 0 36 35">
  <path id="Фигура_3" data-name="Фигура 3" class="cls-1" d="M1374.72,951.486a17.923,17.923,0,0,0-18.48-14.455,17.654,17.654,0,0,0-15.12,9.26,15.871,15.871,0,0,0-2.09,8.975,17.069,17.069,0,0,0,8.05,13.818,17.445,17.445,0,0,0,8.6,2.86,2.159,2.159,0,0,1,.27.056h2.18c0.67-.09,1.34-0.15,2-0.276a17.667,17.667,0,0,0,13.16-9.8,15.852,15.852,0,0,0,1.65-6.1,1.792,1.792,0,0,1,.06-0.226v-2.119C1374.91,952.812,1374.84,952.143,1374.72,951.486Zm-23.93,7.855c-0.1.007-.18,0.019-0.26,0.019-1.51,0-3.02,0-4.53,0a0.772,0.772,0,0,1-.88-0.87V949.91c0-.077.01-0.154,0.01-0.246h1.53v8.244h4.13v1.433Zm3.27,0h-1.52v-9.669h1.52v9.669Zm7.51-8.795-2.07,8.035a2.351,2.351,0,0,1-.07.262,0.686,0.686,0,0,1-.74.456,0.621,0.621,0,0,1-.62-0.5c-0.24-.879-0.47-1.76-0.7-2.641-0.47-1.772-.93-3.545-1.4-5.317-0.17-.651-0.01-1.041.49-1.154a0.826,0.826,0,0,1,.97.8l1.2,4.7c0.03,0.1.07,0.2,0.1,0.307h0.07c0.17-.665.35-1.33,0.52-2l0.78-3.076a0.777,0.777,0,0,1,.85-0.692A0.682,0.682,0,0,1,1361.57,950.546Zm6.59,4.746h-3.47v2.681h3.46v1.515h-0.94c-1.03,0-2.06,0-3.09,0a0.784,0.784,0,0,1-.93-0.89v-8.063a0.748,0.748,0,0,1,.76-0.877c1.39-.017,2.79-0.006,4.19-0.006v1.438h-3.47v2.7h3.49v1.509Z" transform="translate(-1339 -937)"/>
</svg>
