   
 <svg xmlns="http://www.w3.org/2000/svg" xmlns:xlink="http://www.w3.org/1999/xlink"
 width="39px" height="34px"> 
  <path fill-rule="evenodd"  fill="rgb(0, 209, 93)" d="M27.669,34.000 C21.411,34.000 16.338,31.743 16.338,28.958 L16.338,27.864 C16.338,27.510 16.420,27.165 16.576,26.831 C17.647,29.121 22.206,30.841 27.669,30.841 C33.131,30.841 37.691,29.121 38.762,26.831 C38.918,27.165 39.000,27.510 39.000,27.864 L39.000,28.958 C39.000,31.743 33.927,34.000 27.669,34.000 ZM27.669,28.370 C21.411,28.370 16.338,26.113 16.338,23.328 L16.338,22.235 C16.338,21.881 16.420,21.535 16.576,21.202 C17.647,23.491 22.206,25.211 27.669,25.211 C33.131,25.211 37.691,23.491 38.762,21.202 C38.918,21.535 39.000,21.880 39.000,22.235 L39.000,23.328 C39.000,26.113 33.927,28.370 27.669,28.370 ZM27.669,22.437 C21.411,22.437 16.338,20.180 16.338,17.395 L16.338,16.301 C16.338,15.947 16.420,15.602 16.576,15.269 C17.647,17.558 22.206,19.278 27.669,19.278 C33.131,19.278 37.691,17.558 38.762,15.269 C38.918,15.602 39.000,15.947 39.000,16.301 L39.000,17.395 C39.000,20.180 33.927,22.437 27.669,22.437 ZM27.669,16.808 C21.411,16.808 16.338,14.550 16.338,11.765 L16.338,10.672 C16.338,10.318 16.420,9.972 16.576,9.639 C17.647,11.928 22.206,13.649 27.669,13.649 C33.131,13.649 37.691,11.928 38.762,9.639 C38.918,9.972 39.000,10.318 39.000,10.672 L39.000,11.765 C39.000,14.550 33.927,16.808 27.669,16.808 ZM27.669,11.178 C21.411,11.178 16.338,8.921 16.338,6.136 L16.338,5.042 C16.338,2.258 21.411,0.000 27.669,0.000 C33.927,0.000 39.000,2.258 39.000,5.042 L39.000,6.136 C39.000,8.921 33.927,11.178 27.669,11.178 ZM0.000,25.935 L0.000,24.841 C0.000,24.487 0.082,24.142 0.238,23.808 C1.309,26.098 5.869,27.818 11.331,27.818 C12.427,27.818 13.486,27.748 14.489,27.618 L14.489,27.864 L14.489,28.957 C14.489,29.569 14.633,30.160 14.912,30.720 C13.786,30.886 12.583,30.977 11.331,30.977 C5.073,30.977 0.000,28.720 0.000,25.935 ZM0.000,20.305 L0.000,19.212 C0.000,18.858 0.082,18.512 0.238,18.179 C1.309,20.468 5.869,22.188 11.331,22.188 C12.427,22.188 13.486,22.118 14.489,21.989 L14.489,25.149 C13.487,25.278 12.427,25.348 11.331,25.348 C5.073,25.348 0.000,23.090 0.000,20.305 ZM0.000,14.676 L0.000,13.582 C0.000,10.797 5.073,8.540 11.331,8.540 C12.427,8.540 13.487,8.609 14.489,8.739 L14.489,19.520 C13.487,19.649 12.427,19.718 11.331,19.718 C5.073,19.718 0.000,17.461 0.000,14.676 Z"/>
</svg>                                                                                 
                                                                                                    
                                                                                                    
                                                                                                    
                                                                                                    
                                                                                                    
                                                                                                    
                                                                                                    
                                                                                                    
                                                                                                    
                                                                                                    
                                                                                                    
                                                                                                    
                                                                                                    
                                                                                                    
                                                                                                    
                                                                                                    
                                                                                                    
                                                                                                    
                                                                                                    
                           
<?xpacket end="w"?></metadata>
<defs>
    <style>
      .cls-1 {
        fill: #00d15d;
        fill-rule: evenodd;
      }
    </style>
  </defs>
  <path id="Forma_1" data-name="Forma 1" class="cls-1" d="M1107.33,958.718a24.766,24.766,0,0,0,3.16-.2V947.739a24.58,24.58,0,0,0-3.16-.2c-6.26,0-11.33,2.257-11.33,5.042v1.094C1096,956.461,1101.07,958.718,1107.33,958.718Zm0,5.63a24.762,24.762,0,0,0,3.16-.2v-3.16a24.762,24.762,0,0,1-3.16.2c-5.46,0-10.02-1.72-11.09-4.009a2.364,2.364,0,0,0-.24,1.033v1.093C1096,962.09,1101.07,964.348,1107.33,964.348Zm3.16,2.516v-0.246a24.576,24.576,0,0,1-3.16.2c-5.46,0-10.02-1.72-11.09-4.01a2.367,2.367,0,0,0-.24,1.033v1.094c0,2.785,5.07,5.042,11.33,5.042a24.572,24.572,0,0,0,3.58-.257,3.9,3.9,0,0,1-.42-1.763v-1.093ZM1123.67,939c-6.26,0-11.33,2.258-11.33,5.042v1.094c0,2.785,5.07,5.042,11.33,5.042s11.33-2.257,11.33-5.042v-1.094C1135,941.258,1129.93,939,1123.67,939Zm0,13.649c-5.46,0-10.02-1.721-11.09-4.01a2.364,2.364,0,0,0-.24,1.033v1.093c0,2.785,5.07,5.043,11.33,5.043s11.33-2.258,11.33-5.043v-1.093a2.364,2.364,0,0,0-.24-1.033C1133.69,950.928,1129.13,952.649,1123.67,952.649Zm0,5.629c-5.46,0-10.02-1.72-11.09-4.009a2.36,2.36,0,0,0-.24,1.032V956.4c0,2.785,5.07,5.042,11.33,5.042S1135,959.18,1135,956.4V955.3a2.36,2.36,0,0,0-.24-1.032C1133.69,956.558,1129.13,958.278,1123.67,958.278Zm0,5.933c-5.46,0-10.02-1.72-11.09-4.009a2.364,2.364,0,0,0-.24,1.033v1.093c0,2.785,5.07,5.042,11.33,5.042s11.33-2.257,11.33-5.042v-1.093a2.361,2.361,0,0,0-.24-1.033C1133.69,962.491,1129.13,964.211,1123.67,964.211Zm0,5.63c-5.46,0-10.02-1.72-11.09-4.01a2.367,2.367,0,0,0-.24,1.033v1.094c0,2.785,5.07,5.042,11.33,5.042s11.33-2.257,11.33-5.042v-1.094a2.367,2.367,0,0,0-.24-1.033C1133.69,968.121,1129.13,969.841,1123.67,969.841Z" transform="translate(-1096 -939)"/>
</svg>
